<?xml version="1.0" standalone="no"?>
<!DOCTYPE svg PUBLIC "-//W3C//DTD SVG 1.1//EN" "http://www.w3.org/Graphics/SVG/1.1/DTD/svg11.dtd">
<svg xmlns="http://www.w3.org/2000/svg" xmlns:xlink="http://www.w3.org/1999/xlink" version="1.1" id="Camada_1" x="0px" y="0px" viewBox="0 0 1080 1080" style="enable-background:new 0 0 1080 1080;" xml:space="preserve" width="1080" height="1080">
<style type="text/css">
	.st0{fill:#723310;}
	.st1{fill:#C6A414;}
	.st2{fill:#FBCE13;}
	.st3{fill:#888888;}
	.st4{fill:#929292;}
	.st5{fill:#58220C;}
	.st6{fill:#494949;}
	.st7{fill:#7A7A7A;}
	.st8{fill:#6F6872;}
	.st9{fill:#D3AD18;}
	.st10{fill:#251433;}
	.st11{fill:#D8D8D8;}
	.st12{fill:#D69274;}
	.st13{fill:#3B1B4D;}
	.st14{fill:#F1A57F;}
	.st15{fill:#261333;}
	.st16{fill:#F2CAB0;}
	.st17{fill:#EAB096;}
	.st18{fill:#FDCE12;}
	.st19{fill:#B7B6B6;}
	.st20{fill:#0D0D0C;}
	.st21{fill:#C6C5C4;}
	.st22{fill:#F2F2F2;}
	.st23{fill:#331944;}
	.st24{fill:#330F0F;}
	.st25{fill:#724F41;}
	.st26{fill:#441809;}
	.st27{fill:#757773;}
	.st28{fill:#959193;}
	.st29{fill:#767676;}
	.st30{fill:none;stroke:#232323;stroke-linecap:round;stroke-linejoin:round;}
	.st31{fill:none;stroke:#FDCE12;stroke-width:3;stroke-miterlimit:10;}
	.st32{fill:none;stroke:#251133;stroke-width:3;stroke-miterlimit:10;}
</style>
<g>
	<g id="XMLID_5_">
		<g>
			<path class="st0" d="M573.56,291.25c-0.17,0.02-1.97,0.02-4.55,0.12c-0.3-0.26-0.6-0.53-0.9-0.79     C570.3,290.82,572.2,291.06,573.56,291.25z"/>
			<path class="st1" d="M1056,706.09v47.07l-70.1,28.93h-0.01l-290.21,21.82c6.89-0.61,8.88-1.86,9.28-2.89     c2.52,1.62,5.92,2.04,9.79,0.9l58.68-17.19l205.25-60.14c5.44-1.6,10.83-7.15,13.75-13.61L1056,706.09z"/>
			<path class="st2" d="M1056,683.3v22.79l-63.56,4.89c0.91-1.99,1.58-4.08,1.94-6.16l4.4-25.51h0.01L1056,683.3z"/>
			<path class="st3" d="M877.28,624.8l65.89-101.49v-0.01l72.25-14.07c7.25-1.41,11.83,5.13,10.22,14.48l-26.85,155.6h-0.01     l-4.4,25.51c-0.36,2.08-1.03,4.17-1.94,6.16c-2.92,6.46-8.31,12.01-13.75,13.61l-205.25,60.14l80.85-124.53L877.28,624.8z      M905.94,674.82v-30.13l-8.05,10.58v-18.22l-28.41,36.58l17.26-3.68l-8.5,11.18L905.94,674.82z"/>
			<path class="st2" d="M985.89,782.1l-137.05,56.56l-220.23-1.05v-0.42c3.45-11.25,0-20.58,0-20.58l-12-0.36     c14.69-19.98-50.94-1.88-51.99-1.59h-0.01l-12.53-0.39l2.3-15.24c0.24,1.38,0.01,8.55,6.66,11.32c3.03,0.71,6.14,0.01,9.19-1.71     c0.01-0.01,0.03-0.02,0.04-0.02c6.75-3.84,13.21-12.72,17.91-22.74c46.97,9.14,98.44,18.67,106.06,18.14     c0.51-0.03,0.98-0.08,1.44-0.11L985.89,782.1z"/>
			<path class="st4" d="M714.02,680.95l0.15-1.17v-0.01l0.3-2.36l4.23-33.59l1.69-13.42l1.26-10l1.06-8.35v-0.01l3.47-27.6     c1.33-10.61,10.13-20.82,19.45-22.64l197.54-38.5v0.01L877.28,624.8l-23,3.28v32.13l-80.85,124.53l-58.68,17.19     c-3.87,1.14-7.26,0.72-9.79-0.9c-2.7-1.72-4.41-4.82-4.64-8.86c-0.07-1.05-0.02-2.17,0.12-3.34l1.76-13.98l0.57-4.52l1.01-8.07     l1.28-10.19l0.79-6.28l0.41-3.26l0.85-6.72l0.15-1.25l0.91-7.26v-0.01l0.46-3.7l0.84-6.67l0.01-0.04l1.02-8.13l0.29-2.3     l1.06-8.34l0.91-7.31l0.09-0.72l0.1-0.75l0.54-4.27l0.14-1.16L714.02,680.95z"/>
			<polygon class="st3" points="905.94,644.69 905.94,674.82 878.24,681.13 886.74,669.95 897.89,667.57 897.89,655.27    "/>
			<polygon class="st3" points="897.89,655.27 897.89,667.57 886.74,669.95    "/>
			<polygon class="st3" points="897.89,637.05 897.89,655.27 886.74,669.95 869.48,673.63    "/>
			<polygon class="st4" points="877.28,624.8 854.28,660.21 854.28,628.08    "/>
			<path class="st0" d="M703.52,699.73c1.32,2.38,3.68,5.51,7.3,6.7l-0.29,2.3l-1.02,8.13l-5.37-3.92l-0.56-0.41     c-13.23-8.82-20.94-3.31-20.94-3.31c-26.43,4.66-48.47,4.7-64.64,2.98c-18.22-1.95-28.98-6.15-30.14-8.49     c-7.72-15.43-8.37-37.41-6.61-76.05l-0.15-0.44c0.01,0,0.02-0.01,0.03-0.01c5.41-1.92,14.13-6.67,19.98-10l0.13,0.22     c0,0,0.93,10.19,2.49,21.77c0.29,2.16,0.61,4.36,0.94,6.57c0,0,0,0,0,0.01c2.07,13.71,4.94,27.07,8.1,26.25     c2.36-0.61,11.5,1.83,23.02,4.58c1.53,0.36,3.1,0.74,4.71,1.11c0.02,0,0.03,0,0.06,0.01c10.77,2.48,22.96,4.93,33.48,5.4     c0,0,0.01,0,0.02,0c1.1,0.06,2.19,0.09,3.25,0.09c6.83,0.03,12.75-0.93,16.81-3.46c0,0,9.41-5.36,20.37-2.37l-0.3,2.36     c0-0.5-3.65-0.46-3.65-0.46s1.63,0.63,3.49,1.64l-0.36,2.94c-0.78-1.14-3.52-0.65-4.06-0.54c0.39-0.04,1.87-0.08,3.91,1.7     l-0.54,4.27c-1.1-2.31-6.7,0-6.7,0s3.58-0.45,6.6,0.75l-0.09,0.72l-0.91,7.31C706.63,695.74,703.52,699.73,703.52,699.73z      M620.42,691.78c-1.04-2.06-6.19-2.06-6.19-2.06s-2.06,3.1-1.02,2.06C614.22,690.75,620.42,691.78,620.42,691.78z"/>
			<path class="st5" d="M714.18,679.77v0.01l-0.15,1.17c-1.86-1.01-3.49-1.64-3.49-1.64S714.18,679.28,714.18,679.77z"/>
			<path class="st5" d="M713.66,683.9l-0.14,1.16c-2.04-1.77-3.53-1.74-3.91-1.7C710.14,683.25,712.88,682.76,713.66,683.9z"/>
			<path class="st5" d="M712.98,689.32l-0.1,0.75c-3.02-1.2-6.6-0.75-6.6-0.75S711.87,687,712.98,689.32z"/>
			<path class="st5" d="M709.5,716.87l-0.01,0.04c-0.08,0.37-0.8,2.87-5.7-1.87c-0.23-0.22-0.47-0.43-0.73-0.63l1.07-1.47     L709.5,716.87z"/>
			<path class="st3" d="M709.49,716.92l-0.84,6.67l-1.22-0.15c0-0.19-0.11-0.36-0.34-0.39l-31.22-2.72c-0.03,0-0.08,0-0.11,0.01     l-0.75-3.16l22.27-5.29c2.15,0.52,4.2,1.31,5.79,2.53c0.25,0.2,0.5,0.41,0.73,0.63C708.69,719.78,709.42,717.29,709.49,716.92z"/>
			<path class="st3" d="M622.54,751.85l-25.24,7.24l-1.9-0.04c0.24-7.23-1.61-12.86-6.36-14.76c-18.45-7.37-28.02,10.71-28.02,10.71     l1.69-11.19l10.6-2.51l22.74-5.4l78.95-18.74l0.75,3.16l-64.15,15.3c-0.42,0.1-0.37,0.72,0.06,0.75l41.35,2.76     c0.04,0.01,0.09,0,0.13-0.01l54.02-15.34c0.19-0.06,0.26-0.2,0.26-0.35l1.22,0.15l-0.46,3.7v0.01l-17.98,5.16l-17.34,4.97     l-23.6,6.77L622.54,751.85z"/>
			<polygon class="st6" points="708.19,727.3 707.28,734.56 707.16,734.55 706.91,734.53 706.95,734.23 690.25,732.59      690.22,732.46    "/>
			<path class="st7" d="M707.43,723.43c0,0.15-0.08,0.3-0.26,0.35l-54.02,15.34c-0.04,0.01-0.09,0.02-0.13,0.01l-41.35-2.76     c-0.43-0.03-0.47-0.65-0.06-0.75l64.15-15.3c0.03-0.01,0.08-0.01,0.11-0.01l31.22,2.72     C707.32,723.07,707.43,723.24,707.43,723.43z"/>
			<polygon class="st6" points="706.91,734.53 707.16,734.55 707.28,734.56 707.12,735.81 706.63,735.74 691.8,740.19      690.91,740.07 672.91,737.55 672.88,737.43 690.22,732.46 690.25,732.59 706.95,734.23    "/>
			<polygon class="st6" points="691.8,740.19 706.63,735.74 707.12,735.81 706.27,742.53 691.12,740.4    "/>
			<polygon class="st6" points="691.51,749.95 669.28,746.97 691.12,740.4 706.27,742.53 705.87,745.79 705.51,745.75      692.37,750.07    "/>
			<polygon class="st6" points="692.37,750.07 705.51,745.75 705.87,745.79 705.07,752.07 691.7,750.28    "/>
			<polygon class="st6" points="697.79,761.22 696.91,761.11 669.22,757.66 691.7,750.28 705.07,752.07 703.79,762.27      697.09,761.43    "/>
			<path class="st5" d="M697.28,711.88c-5.52-1.33-11.63-0.82-11.63-0.82c-21.04,5.84-47.39,4.99-67.85,2.82l0.19-1.68     c16.17,1.72,38.21,1.69,64.64-2.98c0,0,7.72-5.51,20.94,3.31l0.56,0.41l-1.07,1.47C701.48,713.19,699.43,712.4,697.28,711.88z"/>
			<polygon class="st6" points="703.79,762.27 702.78,770.34 702.16,770.26 695.32,773.21 695.23,773.81 670.91,770.15      670.99,769.55 697.09,761.43    "/>
			<polygon class="st6" points="702.78,770.34 702.21,774.86 695.23,773.81 695.32,773.21 702.16,770.26    "/>
			<path class="st8" d="M704.96,801.03c-0.4,1.03-2.39,2.28-9.28,2.89c-0.46,0.03-0.94,0.08-1.44,0.11     c-7.62,0.53-59.09-9-106.06-18.14c1.94-4.12,3.57-8.44,4.79-12.67l107.35,18.96C700.55,796.22,702.26,799.31,704.96,801.03z"/>
			<path class="st3" d="M702.21,774.86l-1.76,13.98c-0.14,1.17-0.19,2.29-0.12,3.34l-107.35-18.96c1.44-4.98,2.31-9.86,2.44-14.16     l1.9,0.04l22.1,3.32l25.67,3.86l25.83,3.88l24.32,3.66L702.21,774.86z"/>
			<polygon class="st6" points="697.79,761.22 697.09,761.43 696.2,761.32 696.91,761.11    "/>
			<polygon class="st6" points="696.2,761.32 697.09,761.43 670.99,769.55 670.91,770.15 645.07,766.27 645.18,765.55      668.55,757.88    "/>
			<polygon class="st6" points="696.91,761.11 696.2,761.32 668.55,757.88 669.22,757.66    "/>
			<polygon class="st6" points="692.37,750.07 691.7,750.28 690.84,750.17 691.51,749.95    "/>
			<polygon class="st6" points="691.8,740.19 691.12,740.4 690.23,740.28 690.91,740.07    "/>
			<polygon class="st6" points="691.7,750.28 669.22,757.66 668.34,757.55 690.84,750.17    "/>
			<polygon class="st6" points="691.51,749.95 690.84,750.17 668.58,747.18 669.28,746.97    "/>
			<polygon class="st6" points="691.12,740.4 669.28,746.97 668.37,746.85 690.23,740.28    "/>
			<polygon class="st6" points="690.23,740.28 668.37,746.85 649.32,744.29 649.28,744.19 672.88,737.43 672.91,737.55      690.91,740.07    "/>
			<polygon class="st6" points="690.84,750.17 668.34,757.55 644.1,754.54 668.58,747.18    "/>
			<path class="st0" d="M679.55,681.64c-1.03,0.72-2.25,1.61-2.25,1.61c-1.06,0-2.15-0.03-3.25-0.09     C674.35,683.09,677.62,682.4,679.55,681.64z"/>
			<polygon class="st6" points="669.28,746.97 668.58,747.18 667.68,747.06 668.37,746.85    "/>
			<polygon class="st6" points="669.22,757.66 668.55,757.88 667.67,757.77 668.34,757.55    "/>
			<polygon class="st6" points="668.58,747.18 644.1,754.54 643.18,754.42 667.68,747.06    "/>
			<polygon class="st6" points="667.67,757.77 668.55,757.88 645.18,765.55 645.07,766.27 619.4,762.41 619.48,761.94      643.39,754.75    "/>
			<polygon class="st6" points="667.68,747.06 643.18,754.42 622.54,751.85 649.28,744.19 649.32,744.29 668.37,746.85    "/>
			<polygon class="st6" points="668.34,757.55 667.67,757.77 643.39,754.75 644.1,754.54    "/>
			<path class="st0" d="M646.74,675.78c2.56-0.52-3.64,2.33-6.19,1.97c-0.02-0.01-0.03-0.01-0.06-0.01     c-1.61-0.37-3.17-0.75-4.71-1.11C635.78,676.63,645.3,676.07,646.74,675.78z"/>
			<polygon class="st6" points="644.1,754.54 643.39,754.75 642.46,754.64 643.18,754.42    "/>
			<polygon class="st6" points="642.46,754.64 643.39,754.75 619.48,761.94 619.4,762.41 597.3,759.1 622.54,751.85 643.18,754.42         "/>
			<path class="st1" d="M613.32,816.15l3.28,0.1l12,0.36c0,0,3.45,9.32,0,20.58v0.42l-89.62-0.42l-34.19-11.15     c10.01,2.6,28.01,5.21,45.89-2.61l1.38-9.15l12.53,0.39h0.01l7.75,0.23L613.32,816.15z"/>
			<path class="st5" d="M601.26,711.72c-9.89-1.53-16.18-2.95-16.18-2.95c-4.67-15.15-8.84-35.58-7.79-58.43     c0.35-7.69,0.18-15.18-0.35-22.31c0.83,0.18,2.29-0.14,4.14-0.8l0.15,0.44c-1.75,38.64-1.1,60.62,6.61,76.05     c1.17,2.34,11.93,6.54,30.14,8.49l-0.19,1.68c-2.24-0.23-4.4-0.48-6.48-0.75c-3.64-0.45-7.01-0.94-10.04-1.4     C601.27,711.72,601.26,711.72,601.26,711.72z"/>
			<path class="st5" d="M614.22,689.71c0,0,5.16,0,6.19,2.06c0,0-6.19-1.02-7.22,0C612.16,692.81,614.22,689.71,614.22,689.71z"/>
			<path class="st1" d="M564.61,814.67c1.05-0.3,66.68-18.39,51.99,1.59l-3.28-0.1c10.06-13.31-40.96-1.26-40.96-1.26L564.61,814.67     z"/>
			<path class="st9" d="M613.39,395.19l0.3,0.24l2.57,2.09c3.65,4.07-0.19,7.21-0.19,7.21s-0.28,1.03-1.85,2.25     c-0.57,0.44-1.3,0.91-2.25,1.37h-0.01c-0.25,0.12-0.51,0.23-0.79,0.35c-1.65,0.69-3.88,1.33-6.88,1.79     c-0.57,0.09-1.18,0.17-1.82,0.23c-8.16,0.91-10.49,13.55-16.22,24.27c4.62-15.5,6.73-31.71,7.35-47.15     c3.2,0.93,6.32,1.88,9.37,2.84c0.4,0.12,0.78,0.25,1.16,0.37c3.84,1.28,6.65,2.56,8.68,3.77     C613,394.94,613.2,395.07,613.39,395.19z"/>
			<path class="st5" d="M611.32,713.14c0,0,7.55,4.96,4.45,3.93c-2.98-0.99-13.63-5.01-14.49-5.33     C604.31,712.2,607.69,712.68,611.32,713.14z"/>
			<path class="st2" d="M572.36,814.9c0,0,51.02-12.06,40.96,1.26L572.36,814.9z"/>
			<path class="st5" d="M612.45,366.24c0.88,7.94,0.83,9.6,0.51,24.42c0,0,0,0,0,0.01c-0.02,1.38-0.08,2.77-0.15,4.14     c-2.04-1.21-4.85-2.49-8.68-3.77c-1.43-9.8-4.83-17.47-10.49-23.3c-1.16-32.6-7.62-57.9-7.84-58.76     c11.69,12.4,18.45,24.52,24.29,46.8c0.01,0.03,0.01,0.07,0.02,0.1c0.03,0.11,0.07,0.23,0.09,0.35     C610.64,358.27,612.45,366.24,612.45,366.24z"/>
			<path class="st10" d="M614.21,406.98c-0.12,10.16-1.72,24.54-7.54,41.66c-5.37,15.77-14.18,24.29-25.75,26.76     c2.08-2.13,4.08-4.38,6-6.73h0.01c8.96-11,13.98-25.82,18.85-39.7c1.88-5.37,3.43-10.81,4.6-16.25c0.14-0.65,0.28-1.3,0.4-1.94     c0.14-0.69,0.28-1.39,0.39-2.08c0.29-0.12,0.54-0.23,0.79-0.35h0.01C612.91,407.89,613.64,407.42,614.21,406.98z"/>
			<path class="st5" d="M611.16,408.7c-0.11,0.69-0.24,1.39-0.39,2.08c-0.12,0.64-0.25,1.29-0.4,1.94     c-1.17,5.43-2.71,10.88-4.6,16.25c-4.87,13.88-9.89,28.7-18.85,39.7h-0.01c-1.92,2.36-3.91,4.61-6,6.73     c-1.55,1.59-3.09,3.14-4.6,4.66h-0.01c-3.45,3.47-6.21,7.91-10.03,11.62c-4.49,4.34-9.42,8.85-14.54,12.88     c-5.05,3.98-10.27,7.49-15.43,9.94c-5.92,2.81-6.38,2.22-13.49,3.77c-2.59,0.57-5.29,1.05-8.1,1.43     c-2.79,0.39-5.7,0.68-8.73,0.88c-1.29,0.09-2.61,0.15-3.96,0.21c-11.79,0.45-32.32-2.84-46.87-5.73     c31.72,1.84,56.44-2.85,75.62-11.94c25.78-12.21,41.55-32.32,50.86-55.09c0.72-0.42,1.41-0.85,2.09-1.31l2.44-1.76     c9.42-7.4,15.64-19.01,17.85-32.87c0.09-0.54,0.17-1.08,0.24-1.62C607.28,410.03,609.51,409.39,611.16,408.7z"/>
			<path class="st0" d="M603.72,639.21l3.79,10.76l-2.85-4.18c0-0.01,0-0.01,0-0.01C604.33,643.58,604.01,641.37,603.72,639.21z"/>
			<path class="st10" d="M573.56,291.25c-1.37-0.2-3.26-0.43-5.46-0.67c-2.77-2.45-5.81-4.76-9.73-7.26     c7.34-0.82,15.57-1.1,20.83-1.2c30.67,28.24,30.68,72.18,30.87,73.68c-5.84-22.27-12.6-34.4-24.29-46.8c0-0.01,0-0.01-0.01-0.02     c-5.52-5.85-9.35-10.23-13.04-13.99c-1.23-1.27-2.46-2.46-3.73-3.62C571.59,291.28,573.4,291.28,573.56,291.25z"/>
			<path class="st11" d="M375.68,582.81c-0.48-1.92-0.78-2.91-0.84-3.1C374.9,579.91,375.19,581.01,375.68,582.81z M375.87,583.48     c1.07,4.28,2.91,12.3,5.15,24.91c3.59,20.27,15.85,43.24,15.85,43.24c-1.22,1.5-2.83,2.89-4.75,4.19     c-16.71,11.26-57.18,14.99-78.42,16.19c-8.19,0.47-13.51,0.56-13.51,0.56s0-6.76-5.52-20.94c-14.36-22.63-10.14-83.77-3.95-107.9     c2.7-10.51,22.68-21.73,44.38-31.06c0,0,0,0,0.01,0c40.35-6.22,71.12-14.43,73.06-13.13c0,0,22.07,35.5,42.27,39.8     c0,0,33.45,13.94,55.58-7.87c48.21-1.33,53.21-19.84,53.21-19.84l20.22,19.08c0,0,15.97,26.3,24.66,68.97     c0.17,9.79,3.09,13.99,3.09,13.99s-2.51,1.51-6.11,3.56c-5.85,3.33-14.57,8.08-19.98,10c-5.54-50.34-17.81-60.6-18.2-60.89     c0.39,0.91,11.44,27.1,14.02,61.71c0.53,7.13,0.71,14.61,0.35,22.31c-1.05,22.85,3.12,43.27,7.79,58.43     c0.64,2.11,1.3,4.1,1.95,5.98l-2.02,0.5c-0.9-2.33-2.71-4.19-2.71-4.19c-0.85-0.9-1.7-1.77-2.53-2.61     c0.47-0.51,0.93-1.18,1.16-2.02c1.02-3.56-1.72-10.13-22-19.77c-26.01-12.37-56.88,8.09-56.88,8.09     c-20.69,9.21-50.72,14.58-74.17,17.58c1.84-0.75,3.98-4.23,4.17-4.53c-2.82,3.71-10.16,5.18-11.52,5.42     c-0.08,0.01-0.14,0.02-0.22,0.03c-4.43,0.51-8.52,0.91-12.13,1.26c-0.2-17.38-9.9-46.14-10.99-53.77c-1.1-7.72,2.2-9.92,2.2-9.92     C389.34,630.74,379.1,595.13,375.87,583.48z M526.14,638.95l0.11-24.28l-6.5,8.68l0.07-14.05l-23.43,29.91l13.59-2.81l-5.5,7.35     L526.14,638.95z"/>
			<path class="st12" d="M604.28,410.48c-0.08,0.54-0.15,1.08-0.24,1.62c-2.22,13.85-8.43,25.47-17.85,32.87l-2.44,1.76     c-0.68,0.46-1.38,0.89-2.09,1.31c1.75-4.27,3.27-8.63,4.58-13.06c5.73-10.72,8.07-23.35,16.22-24.27     C603.1,410.65,603.71,410.57,604.28,410.48z"/>
			<path class="st12" d="M604.12,391.05c-0.37-0.12-0.76-0.25-1.16-0.37c-3.05-0.96-6.17-1.92-9.37-2.84     c0.29-6.89,0.26-13.62,0.03-20.08C599.29,373.58,602.68,381.26,604.12,391.05z"/>
			<path class="st11" d="M596.06,735.91l-22.74,5.4l-10.6,2.51l1.25-8.27v-0.01c0,0-0.09-0.2-0.34-0.54     c3.89,3.58,6.65,3.17,6.65,3.17c0.02-0.01,0.03-0.01,0.06-0.02c6.82-2.81,4.36-7.94,4.19-8.29c1.22,1.99,3.81,2.38,5.92,1.64     c1.48-0.51,2.71-1.57,3.08-2.99c0.51-1.96,1.12-3.24-1.2-6.25c0.68-0.35,1.23-0.75,1.68-1.16c1.91-1.77,1.76-3.98,1.04-5.86     l2.02-0.5C591.54,727.78,595.92,735.66,596.06,735.91z"/>
			<path class="st13" d="M589.05,744.29c4.75,1.9,6.6,7.53,6.36,14.76c-0.12,4.3-0.99,9.18-2.44,14.16     c3.69-21.89-7.65-22.91-7.65-22.91c-14.28-5.71-24.99,14.76-26.09,16.96l-0.06-0.01l1.85-12.24     C561.03,755.01,570.6,736.92,589.05,744.29z"/>
			<path class="st14" d="M593.62,367.75c0.23,6.46,0.25,13.19-0.03,20.08c-3.79-1.11-7.69-2.18-11.74-3.17     c-15-3.68-31.94-6.41-52.29-6.55c-1.82-0.01-3.62-0.08-5.43-0.23c-0.82-0.07-1.62-0.14-2.44-0.24     c10.07-19.52,34.02-25.48,48.1-22.12C580.18,357.99,588.02,361.97,593.62,367.75z"/>
			<path class="st15" d="M585.32,750.3c0,0,11.34,1.03,7.65,22.91c-1.22,4.23-2.85,8.55-4.79,12.67     c-4.7,10.02-11.16,18.9-17.91,22.74c-0.01,0-0.03,0.01-0.04,0.02c-7.3,3.71-11.09-10.31-11.29-11.09     c1.14,1.99,2.31,3.71,3.22,4.35c5.11,4.96,13.88-4.81,20.15-17.17c2.04-4.02,3.82-8.33,5.14-12.5     C590.67,761.98,591.01,752.58,585.32,750.3z"/>
			<path class="st16" d="M586.82,399.11c1.73,3.16,2.74,7.31,2.14,12.7c-0.03,0.26-0.07,0.54-0.09,0.82c-0.06,0.33-0.1,0.66-0.15,1     c-0.06,0.31-0.11,0.62-0.18,0.94c-0.06,0.32-0.12,0.64-0.2,0.97c-4.46,21.99-18.53,27.52-29.65,29.21c-0.01,0-0.02,0-0.02,0.01     c-0.13,0.01-0.25,0.03-0.39,0.06c-0.01-0.01-0.02,0-0.04,0c-0.18,0.02-0.35,0.06-0.53,0.07c-0.2,0.03-0.4,0.06-0.58,0.09     c-0.01,0-0.01,0-0.01,0c-0.01-0.01-0.02,0-0.03,0.01c-0.13,0.01-0.25,0.02-0.39,0.03s-0.26,0.03-0.4,0.04     c-0.25,0.03-0.5,0.06-0.75,0.09c-0.24,0.02-0.47,0.04-0.72,0.07c-0.07,0.01-0.13,0.01-0.19,0.02c-0.12,0-0.23,0.02-0.34,0.02     c-0.19,0.02-0.36,0.03-0.54,0.04c-11.72,0.93-21.92-10.91-23.19-30.24c-0.1-1.55-0.17-3.05-0.19-4.49s-0.01-2.81,0.04-4.13     c0.02-0.33,0.03-0.66,0.06-0.98c0-0.01,0-0.01,0-0.02c0.04-0.64,0.1-1.26,0.15-1.87c0.03-0.31,0.07-0.62,0.11-0.93     c0-0.04,0.01-0.08,0.02-0.11c0.02-0.22,0.06-0.43,0.09-0.63c0-0.07,0.01-0.12,0.02-0.18c0.02-0.15,0.04-0.31,0.07-0.47     c0.02-0.06,0.02-0.1,0.03-0.15c0.01-0.06,0.02-0.12,0.02-0.17l0.02-0.09c0.02-0.11,0.04-0.22,0.07-0.33     c0.01-0.04,0.02-0.1,0.02-0.15c0.02-0.09,0.03-0.17,0.06-0.25c0.03-0.15,0.06-0.3,0.1-0.44c0.09-0.45,0.2-0.88,0.31-1.3     c0.07-0.24,0.14-0.48,0.21-0.72l0.01-0.03c0.07-0.25,0.14-0.48,0.23-0.72c0.01-0.02,0.02-0.06,0.02-0.09     c0.02-0.04,0.04-0.09,0.06-0.14c0.07-0.22,0.15-0.42,0.23-0.63c0.19-0.51,0.41-0.99,0.65-1.45c0.07-0.17,0.14-0.31,0.23-0.46     c0.07-0.14,0.14-0.28,0.22-0.42c0.07-0.1,0.12-0.2,0.18-0.3c0.13-0.23,0.28-0.44,0.42-0.65c0.17-0.26,0.34-0.52,0.53-0.76     c0.3-0.39,0.62-0.76,0.95-1.11C538.86,390.46,574.99,386.37,586.82,399.11z M563.79,415.94c1.71-7.92-3.34-15.73-11.26-17.44     c-7.92-1.7-15.73,3.34-17.44,11.26c-1.71,7.92,3.34,15.74,11.26,17.44C554.28,428.91,562.08,423.87,563.79,415.94z"/>
			<path class="st3" d="M585.32,750.3c5.69,2.28,5.35,11.68,2.12,21.94l-7.54-1.33l-20.67-3.65     C560.34,765.06,571.04,744.59,585.32,750.3z"/>
			<path class="st8" d="M579.9,770.91l7.54,1.33c-1.31,4.17-3.1,8.48-5.14,12.5c-8.67-1.69-17.13-3.35-25.03-4.92l1.87-12.38     c0,0,0.03-0.07,0.09-0.19L579.9,770.91z"/>
			<path class="st17" d="M586.64,398.77c0.07,0.11,0.13,0.22,0.19,0.34c-11.84-12.74-47.97-8.65-51.31-8.24     c0.66-0.69,1.4-1.32,2.22-1.86c2.72-1.83,6.27-2.78,10.86-2.83h0.78c0.29,0.01,0.56,0.01,0.85,0.02     c0.35,0.01,0.72,0.03,1.08,0.06c0.31,0.01,0.62,0.03,0.93,0.06c0.28,0.02,0.57,0.03,0.85,0.04c10.57,0.65,16.54,1.81,19.49,2.56     c0.04,0.01,0.09,0.02,0.13,0.03l0.1,0.02c0.08,0.01,0.15,0.03,0.22,0.06c0.09,0.03,0.19,0.06,0.29,0.08     c0.12,0.03,0.22,0.07,0.32,0.09c0.03,0.02,0.07,0.02,0.1,0.03h0.01c0.08,0.02,0.15,0.04,0.22,0.07c0.08,0.02,0.14,0.04,0.2,0.07     c0.17,0.06,0.29,0.09,0.39,0.13c0.06,0.01,0.1,0.03,0.15,0.04c0.06,0.02,0.1,0.04,0.14,0.06c0.02,0.01,0.06,0.02,0.07,0.02     c0.01,0.01,0.03,0.01,0.03,0.01s0.03,0.01,0.11,0.03c0.03,0.02,0.07,0.02,0.11,0.03c1.16,0.34,6.44,2.09,10.14,7.08     c0.06,0.07,0.11,0.15,0.18,0.23C585.88,397.53,586.27,398.13,586.64,398.77z"/>
			<path class="st18" d="M396.77,352.4c3.65-0.11,8.12,0.07,13.6,0.63c1.55,0.15,3.11,0.32,4.66,0.48     c8.38,0.9,16.75,1.93,25.17,3.22c20.4,3.14,40.98,7.86,62.25,16.14c2.16,0.85,4.35,1.59,6.55,2.23c3.25,0.95,6.54,1.68,9.84,2.17     c0.95,0.14,1.91,0.28,2.85,0.37c0.82,0.1,1.62,0.18,2.44,0.24c1.82,0.15,3.62,0.22,5.43,0.23c20.35,0.13,37.29,2.87,52.29,6.55     c4.04,0.99,7.95,2.06,11.74,3.17c-0.62,15.44-2.73,31.65-7.35,47.15c-3.19,5.96-7.43,11.34-14.31,13.77     c-8.06,2.94-14.98,4.18-20.87,4.01c-4.66-0.14-8.67-1.17-12.07-2.93c-9.61-4.97-14.38-15.79-15.75-28.95     c-0.82-7.83-2.34-13.36-4.01-17.26c-1.43-3.32-4.33-5.38-7.58-5.97c-0.06-0.01-0.12-0.02-0.19-0.03     c-3.24-0.53-6.82,0.41-9.63,3.03c-3.37,3.16-7.37,8.02-11.76,15.49c-10.22,17.41-25.75,29.14-47.49,24.21     c-5.94-1.34-12.4-3.92-19.4-8c-1.02-0.6-2.06-1.22-3.11-1.88c-8.99-5.55-11.42-14.13-12.13-22.91     c-0.94-11.32,0.97-22.97-4.66-28.93c-1.02-1.08-2.29-1.97-3.87-2.65c-0.65-0.28-1.27-0.55-1.86-0.82c0-0.03,0-0.06,0-0.09     l-0.01,0.09c-4.83-2.2-8.1-4.25-10.31-6.06c-1-0.82-1.77-1.59-2.38-2.28c0-0.01,0-0.01,0-0.01c-0.77-0.89-1.27-1.66-1.62-2.28     c-0.86-1.47-1.55-2.42-1.55-2.42s-2.5-4.16,2.29-7.03c1.8-1.08,4.64-1.98,9.03-2.42C394.13,352.52,395.39,352.45,396.77,352.4z      M535.52,390.87c-0.33,0.35-0.65,0.73-0.95,1.11c-0.19,0.24-0.36,0.5-0.53,0.76c-0.14,0.21-0.29,0.42-0.42,0.65     c-0.06,0.1-0.11,0.2-0.18,0.3c-0.08,0.14-0.15,0.28-0.22,0.42c-0.09,0.15-0.17,0.3-0.23,0.46c-0.24,0.46-0.46,0.95-0.65,1.45     c-0.08,0.21-0.17,0.41-0.23,0.63c-0.01,0.06-0.03,0.1-0.06,0.14c0,0.03-0.01,0.07-0.02,0.09c-0.09,0.23-0.17,0.46-0.23,0.72     l-0.01,0.03c-0.07,0.23-0.14,0.47-0.21,0.72c-0.11,0.42-0.22,0.85-0.31,1.3c-0.04,0.14-0.07,0.29-0.1,0.44     c-0.02,0.09-0.03,0.17-0.06,0.25c0,0.06-0.01,0.11-0.02,0.15c-0.02,0.11-0.04,0.22-0.07,0.33l-0.02,0.09     c0,0.04-0.01,0.11-0.02,0.17c-0.01,0.06-0.01,0.1-0.03,0.15c-0.02,0.17-0.04,0.32-0.07,0.47c-0.01,0.06-0.02,0.11-0.02,0.18     c-0.03,0.2-0.07,0.41-0.09,0.63c-0.01,0.03-0.02,0.07-0.02,0.11c-0.04,0.31-0.08,0.62-0.11,0.93c-0.06,0.62-0.11,1.23-0.15,1.87     c0,0.01,0,0.01,0,0.02c-0.02,0.32-0.03,0.65-0.06,0.98c-0.06,1.32-0.07,2.7-0.04,4.13s0.09,2.93,0.19,4.49     c1.27,19.33,11.47,31.17,23.19,30.24c0.18-0.01,0.35-0.02,0.54-0.04c0.11,0,0.22-0.02,0.34-0.02c0.06-0.01,0.12-0.01,0.19-0.02     c0.24-0.02,0.47-0.04,0.72-0.07c0.25-0.03,0.5-0.06,0.75-0.09c0.13-0.01,0.26-0.03,0.4-0.04s0.25-0.02,0.39-0.03     c0.01-0.01,0.02-0.02,0.03-0.01c0,0,0,0,0.01,0c0.19-0.03,0.39-0.06,0.58-0.09c0.18-0.01,0.35-0.04,0.53-0.07     c0.02,0,0.03-0.01,0.04,0c0.13-0.02,0.25-0.04,0.39-0.06c0-0.01,0.01-0.01,0.02-0.01c11.12-1.69,25.18-7.22,29.65-29.21     c0.08-0.33,0.14-0.65,0.2-0.97c0.07-0.32,0.12-0.63,0.18-0.94c0.06-0.34,0.1-0.67,0.15-1c0.02-0.28,0.06-0.55,0.09-0.82     c0.61-5.39-0.41-9.53-2.14-12.7c-0.06-0.12-0.12-0.23-0.19-0.34c-0.36-0.64-0.76-1.23-1.17-1.79c-0.07-0.08-0.12-0.17-0.18-0.23     c-3.7-4.98-8.98-6.73-10.14-7.08c-0.04-0.01-0.08-0.01-0.11-0.03c-0.08-0.02-0.11-0.03-0.11-0.03s-0.02,0-0.03-0.01     c-0.01,0-0.04-0.01-0.07-0.02c-0.04-0.01-0.09-0.03-0.14-0.06c-0.06-0.01-0.1-0.03-0.15-0.04c-0.1-0.04-0.22-0.08-0.39-0.13     c-0.06-0.02-0.12-0.04-0.2-0.07c-0.07-0.02-0.14-0.04-0.22-0.07h-0.01c-0.03-0.01-0.07-0.01-0.1-0.03     c-0.1-0.02-0.2-0.06-0.32-0.09c-0.1-0.02-0.2-0.04-0.29-0.08c-0.07-0.02-0.14-0.04-0.22-0.06l-0.1-0.02     c-0.04-0.01-0.09-0.02-0.13-0.03c-2.94-0.75-8.92-1.91-19.49-2.56c-0.28-0.01-0.57-0.02-0.85-0.04     c-0.31-0.02-0.62-0.04-0.93-0.06c-0.36-0.02-0.73-0.04-1.08-0.06c-0.29-0.01-0.56-0.01-0.85-0.02h-0.78     c-4.58,0.06-8.13,1-10.86,2.83C536.92,389.54,536.18,390.17,535.52,390.87z M491.88,389.15v-0.75c-0.01-0.44-0.03-0.88-0.08-1.31     c-0.41-4.16-2.51-7.6-6.65-10.54c-0.32-0.22-0.65-0.44-1-0.67c-0.64-0.42-1.32-0.83-2.06-1.22c-0.37-0.2-0.75-0.4-1.14-0.6     c-0.39-0.19-0.78-0.37-1.2-0.57c-0.06-0.02-0.1-0.04-0.14-0.07c-0.55-0.26-1.12-0.52-1.73-0.75c-0.01,0-0.02,0-0.02-0.01     c-0.2-0.09-0.4-0.17-0.6-0.24c-0.21-0.09-0.42-0.17-0.63-0.25c-0.3-0.12-0.58-0.23-0.87-0.34c-18.81-7.32-26.41-7.18-27.6-7.1     c-0.04,0-0.08,0-0.1,0.01c-0.06,0-0.07,0-0.07,0s-0.03,0-0.08,0c-0.02,0.01-0.06,0-0.09,0h-0.33     c-2.15-0.04-11.16,0.13-19.12,5.14c-0.01,0.01-0.03,0.02-0.04,0.02c-0.56,0.34-1.11,0.69-1.66,1.09c-0.01,0-0.03,0.01-0.04,0.02     c-0.42,0.29-0.83,0.6-1.23,0.93c-0.15,0.12-0.31,0.25-0.47,0.37c-0.47,0.4-0.94,0.82-1.39,1.25c-0.15,0.15-0.32,0.32-0.48,0.48     c-0.34,0.35-0.69,0.74-1.04,1.12c-0.54,0.64-1.07,1.32-1.55,2.05c-0.17,0.22-0.32,0.46-0.46,0.71c-0.15,0.23-0.31,0.48-0.45,0.74     c-0.14,0.24-0.29,0.51-0.42,0.76c-0.11,0.21-0.21,0.42-0.32,0.64c-0.02,0.04-0.06,0.09-0.07,0.14c-0.14,0.26-0.28,0.54-0.39,0.82     c-0.02,0.06-0.04,0.1-0.07,0.15c-0.09,0.2-0.18,0.42-0.26,0.63c-0.01,0.02-0.02,0.06-0.04,0.09c-0.02,0.09-0.07,0.18-0.1,0.26     c-0.08,0.21-0.15,0.42-0.22,0.63c-0.53,1.49-0.94,3.1-1.2,4.82c-5.35,26.1,9.23,36.92,22.09,42.18c0.51,0.21,1,0.41,1.49,0.6     c0.29,0.1,0.56,0.21,0.84,0.31c0.23,0.09,0.44,0.17,0.66,0.25c0.44,0.15,0.88,0.31,1.31,0.46c0.65,0.22,1.3,0.43,1.94,0.63     c0.32,0.11,0.65,0.2,0.97,0.29c13.12,3.46,29.45-5.8,39.45-24.13c0.19-0.34,0.37-0.69,0.55-1.02c0.33-0.62,0.64-1.22,0.94-1.82     c0.08-0.14,0.15-0.3,0.23-0.44c0.14-0.29,0.28-0.57,0.42-0.85c0.13-0.29,0.28-0.56,0.41-0.85c0.1-0.2,0.2-0.41,0.29-0.61     c0.06-0.12,0.11-0.22,0.15-0.33v-0.01c0.14-0.31,0.28-0.61,0.42-0.91c0.09-0.2,0.18-0.4,0.25-0.6c0.09-0.21,0.18-0.42,0.26-0.63     c0.21-0.48,0.41-0.98,0.58-1.45c0.19-0.5,0.37-0.98,0.53-1.47c0.07-0.15,0.12-0.32,0.18-0.48c0.06-0.18,0.11-0.35,0.17-0.53     c0.14-0.42,0.26-0.84,0.37-1.25c0.29-1.05,0.51-2.05,0.66-3.02c0.04-0.25,0.07-0.5,0.1-0.74c0.03-0.22,0.06-0.44,0.09-0.66     c0-0.14,0.02-0.3,0.03-0.44c0-0.09,0.01-0.19,0.01-0.29c0.01-0.15,0.02-0.31,0.02-0.46C491.87,389.27,491.88,389.2,491.88,389.15     z"/>
			<path class="st0" d="M579.21,282.12c-5.26,0.1-13.49,0.39-20.83,1.2c-8.38,0.93-15.6,2.56-15.92,5.39     c0.06,0.73,0.87,1.15,1.52,0.83c1.99-0.99,15.38,0.09,24.13,1.05c0.31,0.26,0.61,0.53,0.9,0.79c-8.59,0.33-25.69,1.7-18.71,8.07     c0,0,2.8-7.11,22.44-4.45c3.69,3.76,7.52,8.13,13.04,13.99c0.01,0.01,0.01,0.01,0.01,0.02c0.22,0.86,6.68,26.15,7.84,58.76     c-5.6-5.79-13.45-9.77-23.83-12.23c-14.07-3.36-38.02,2.6-48.1,22.12c-0.95-0.1-1.91-0.23-2.85-0.37     c-1.48-24.43-24.79-48.38-52.75-50.25c-16.83-1.12-38.26,10.85-51.06,26.5c-1.55-0.17-3.11-0.33-4.66-0.48     c-5.48-0.56-9.95-0.74-13.6-0.63c-1.07-6.94-2.9-13.46-5.4-19.3c-0.01-0.01-0.01-0.03-0.02-0.04     c-3.04-7.11-7.06-13.24-11.88-18.01c0,0,0.11-0.12,0.32-0.34c0.13-0.14,0.32-0.34,0.55-0.58c0.11-0.11,0.24-0.24,0.37-0.39     c9.77-10.01,75.41-73.18,151.05-44.14c0.06-0.01,0.11-0.02,0.17-0.03c7.91-1.68,16.63-2.96,25.92-3.48     c9.17-0.52,18.89-0.28,28.95,1.08c-0.39,0.14-10.34,1.26-21.98,3.13c-7.18,1.16-14.99,2.61-21.6,4.31     c-7.84,2.01-14,4.36-15.47,6.99c-0.58,1.05,0.67,2.12,1.59,1.36c1.98-1.65,9.31-4.1,21.43-4.47c7.26-0.21,16.26,0.31,26.84,2.19     c2.28,0.41,4.64,0.87,7.06,1.41C584.49,282.07,582.38,282.06,579.21,282.12z"/>
			<path class="st0" d="M350.07,779.75c-1.94-1.65-3.84-3.87-5.65-6.54c-1.08-1.58-2.14-3.3-3.17-5.17     c-0.08-0.13-0.14-0.26-0.22-0.41c-0.04-0.08-0.07-0.12-0.07-0.12c-9.34-17.12-16.75-45.01-21.49-66.25c0-0.01,0-0.01,0-0.01     c-0.4-1.76-0.77-3.48-1.12-5.15c-0.02-0.17-0.06-0.32-0.1-0.48c0-0.01-0.01-0.03-0.01-0.04c-1.17-5.48-2.13-10.33-2.84-14.18     c-1.1-5.83-1.69-9.38-1.69-9.38V672c21.24-1.2,61.71-4.93,78.42-16.19c0,0,10.37,39.95,9.97,59.23c1.83-0.14,3.86-0.32,6.07-0.53     c3.62-0.34,7.7-0.75,12.13-1.26c0.08-0.01,0.14-0.02,0.22-0.03c2.07-0.23,4.21-0.48,6.41-0.77c0,0,0,0,0.01,0     c0.29,0.07,0.61,0.02,0.93-0.12c23.45-3,53.49-8.37,74.17-17.58c0,0,30.87-20.46,56.88-8.09c20.28,9.64,23.02,16.21,22,19.77     c-24.54-22.63-39.37-15.94-39.37-15.94l0.08,0.4c2.98-0.56,18.23-2.18,38.13,17.56c0.84,0.84,1.69,1.71,2.53,2.61     c0,0,1.81,1.86,2.71,4.19c0.73,1.88,0.87,4.09-1.04,5.86c-26.44-28.28-43.11-19.01-43.8-18.6c0.71-0.19,15.08-3.8,30.09,8.55     c6.7,5.51,10.25,8.88,12.04,11.21c2.33,3.01,1.71,4.29,1.2,6.25c-0.36,1.42-1.6,2.48-3.08,2.99v-0.01     c-23.52-29-40.81-18.71-41.42-18.34c0.78-0.25,18.37-5.84,35.49,16.69c0,0,0,0.01,0.01,0.02c0.18,0.35,2.63,5.48-4.19,8.29     l-0.11-0.26c-23.15-25.35-32.09-11.86-32.09-11.86c-4.01-0.4-8.63-0.63-13.96-0.63c-2.14,0-4.16,0.03-6.07,0.1     c-30.53,1.04-33.66,10.04-33.66,10.04l0.36,2.6l-0.36,0.06c-67.04,42.19-134.24,41.63-134.24,41.63v0.01c0,0,0,0-0.01,0     C350.14,779.8,350.1,779.78,350.07,779.75z M365.47,742.35h-6.19c0,0,2.07,11.35,0,12.39     C359.27,754.74,363.41,753.71,365.47,742.35z"/>
			<path class="st5" d="M583.98,721.12c-0.44,0.41-0.99,0.8-1.68,1.16c-1.79-2.33-5.33-5.7-12.04-11.21     c-15.01-12.36-29.38-8.74-30.09-8.55C540.87,702.1,557.54,692.83,583.98,721.12z"/>
			<path class="st14" d="M529.21,471.29c-24.49,3.42-45.78-6.73-54.55-11.77c-0.06,0.5-1.16,12.54,7.35,21.16     c0,0,13.36,21.17,35.37,5.43v-0.01C524.6,481.88,527.45,474.49,529.21,471.29z M586.24,434.99c-1.31,4.43-2.83,8.8-4.58,13.06     c-5.26,3.06-11.3,4.97-18.03,5.46c0.23,3.62-0.02,7.26-0.8,10.89c-3.21,14.92-14.88,29.55-32.45,37.88     c-14.95,7.08-34.14,9.59-56.06,3.87c-35.8-9.35-58.03-42.59-52.1-70.2c0.26-1.22,0.58-2.42,0.96-3.6c7,4.08,13.46,6.66,19.4,8     c21.75,4.93,37.27-6.8,47.49-24.21c4.39-7.46,8.39-12.32,11.76-15.49c0,0,16.64-4.06,17.02,15.12c0.37,19.18,8.84,33,20.15,34.07     c3.39,1.76,7.41,2.79,12.07,2.93c5.9,0.17,12.82-1.07,20.87-4.01C578.81,446.33,583.05,440.95,586.24,434.99z M518,446.42     c2.28-2.68,3.31-5.55,2.29-6.41c-1-0.86-3.68,0.62-5.96,3.3c-2.28,2.68-3.31,5.54-2.29,6.41     C513.06,450.57,515.72,449.09,518,446.42z M500.32,447.68c1.38-0.5,1.44-3.87,0.14-7.53c-1.31-3.66-3.48-6.24-4.87-5.74     c-1.39,0.5-1.45,3.87-0.14,7.53C496.74,445.61,498.93,448.18,500.32,447.68z"/>
			<path class="st19" d="M581.11,627.22c-0.01,0-0.02,0.01-0.03,0.01c-1.85,0.66-3.32,0.98-4.14,0.8     c-2.58-34.61-13.63-60.79-14.02-61.71C563.3,566.63,575.57,576.89,581.11,627.22z"/>
			<path class="st5" d="M580.43,731.5v0.01c-2.11,0.74-4.7,0.35-5.92-1.64c-0.01-0.01-0.01-0.02-0.01-0.02     c-17.12-22.53-34.71-16.94-35.49-16.69C539.62,712.78,556.91,702.5,580.43,731.5z"/>
			<path class="st5" d="M580.93,706.43c-0.23,0.84-0.68,1.51-1.16,2.02c-19.9-19.74-35.16-18.12-38.13-17.56l-0.08-0.4     C541.56,690.5,556.38,683.81,580.93,706.43z"/>
			<path class="st0" d="M563.62,453.5c6.73-0.48,12.77-2.39,18.03-5.46c-9.31,22.77-25.08,42.87-50.86,55.09l-0.42-0.86     c17.57-8.33,29.24-22.96,32.45-37.88C563.6,460.77,563.85,457.12,563.62,453.5z"/>
			<path class="st5" d="M569.01,291.38c1.27,1.16,2.49,2.35,3.73,3.62c-19.64-2.66-22.44,4.45-22.44,4.45     C543.32,293.07,560.43,291.71,569.01,291.38z"/>
			<path class="st10" d="M564.82,270.29c4.42,3.11,9.08,7.08,12.77,10.37c-10.58-1.88-19.57-2.4-26.84-2.19     c-1.11-0.77-7.54-3.87-7.54-3.87C549.84,272.9,557.65,271.45,564.82,270.29z"/>
			<path class="st5" d="M570.21,737.89l0.11,0.26c-0.02,0.01-0.03,0.01-0.06,0.02c0,0-2.76,0.41-6.65-3.17     c-0.29-0.41-0.82-1.01-1.69-1.73c-0.73-0.61-1.71-1.29-3.01-1.98c0-0.01,0-0.01-0.01-0.01c-0.39-0.41-7.8-8.13-16.87-4.79     c-1.23-0.17-2.55-0.32-3.92-0.45C538.12,726.03,547.07,712.54,570.21,737.89z"/>
			<path class="st13" d="M558.94,797.56c0.2,0.78,3.99,14.8,11.29,11.09c-3.05,1.72-6.16,2.41-9.19,1.71     c-6.65-2.77-6.41-9.94-6.66-11.32v-0.01l1.34-8.86c0.43,1.75,1.76,4.77,3.21,7.36C558.94,797.54,558.94,797.55,558.94,797.56z"/>
			<path class="st2" d="M582.3,784.74c-6.27,12.37-15.03,22.13-20.15,17.17c-0.9-0.64-2.08-2.36-3.22-4.35c0-0.01,0-0.02-0.01-0.03     c-1.44-2.59-2.78-5.61-3.21-7.36l1.55-10.34C565.18,781.39,573.63,783.06,582.3,784.74z"/>
			<path class="st15" d="M563.96,735.54v0.01c0,0-7.96,3.66-20.81,5.86c-7.14,1.22-15.79,1.99-25.43,1.43     c-2.85-0.17-5.8-0.45-8.81-0.87c-16.64-12.04,45.85-12.13,46.89-12.13h0.01c1.19,0.47,2.22,0.96,3.1,1.43     c0.01,0,0.01,0,0.01,0.01c1.3,0.69,2.28,1.38,3.01,1.98c0.58,0.66,1.15,1.23,1.69,1.73     C563.88,735.34,563.96,735.54,563.96,735.54z"/>
			<path class="st15" d="M563.96,735.55l-1.25,8.27l-1.69,11.19l-1.85,12.24l-0.03,0.2l-1.87,12.38l-1.55,10.34l-1.34,8.86v0.01     l-2.3,15.24l-1.38,9.15c-17.89,7.83-35.89,5.21-45.89,2.61c-0.01-0.01-0.02-0.01-0.03-0.01l-7.95-2.59     c-0.02-0.01-0.03-0.01-0.03-0.01l-1.8-12.8c19.17,4.19,30.83-2.81,37.89-13.77h7.01v-13.91l-1.1,1.1     c6.4-19.7,4.36-42.64,4.36-42.64C556.01,739.21,563.96,735.55,563.96,735.55z"/>
			<path class="st20" d="M552.52,398.5c7.92,1.71,12.97,9.51,11.26,17.44c-1.71,7.92-9.51,12.97-17.44,11.26     c-7.92-1.7-12.97-9.51-11.26-17.44C536.8,401.84,544.6,396.81,552.52,398.5z M549.06,413.68c0.66-3.09-1.3-6.14-4.4-6.8     c-3.1-0.67-6.14,1.3-6.81,4.4c-0.66,3.09,1.31,6.14,4.4,6.8C545.35,418.74,548.39,416.78,549.06,413.68z"/>
			<path class="st5" d="M558.38,283.32c3.92,2.5,6.97,4.82,9.73,7.26c-8.75-0.96-22.13-2.04-24.13-1.05     c-0.65,0.32-1.47-0.1-1.52-0.83C542.78,285.88,550,284.24,558.38,283.32z"/>
			<path class="st19" d="M551.75,504.56l7.48,7.06c0,0-5,18.51-53.21,19.84c3.19-3.13,6.13-7,8.71-11.76     c2.81-0.39,5.51-0.86,8.1-1.43c7.11-1.55,7.57-0.96,13.49-3.77C541.48,512.06,546.7,508.54,551.75,504.56z"/>
			<path class="st21" d="M558.92,731.28c-0.88-0.47-1.91-0.96-3.1-1.43h-0.01c-3.22-1.29-7.66-2.51-13.77-3.36     C551.11,723.14,558.53,730.87,558.92,731.28z"/>
			<path class="st22" d="M544.67,406.88c3.1,0.66,5.06,3.71,4.4,6.8c-0.67,3.1-3.71,5.06-6.81,4.4c-3.09-0.66-5.06-3.71-4.4-6.8     C538.53,408.18,541.57,406.21,544.67,406.88z"/>
			<path class="st5" d="M543.22,274.6c0,0,6.43,3.1,7.54,3.87c-12.11,0.37-19.44,2.82-21.43,4.47c-0.91,0.76-2.17-0.31-1.59-1.36     C529.22,278.97,535.39,276.61,543.22,274.6z"/>
			<path class="st13" d="M543.16,741.42c0,0,2.04,22.95-4.36,42.64l-3.04,3.06v-8.31l-13.84,13.91h8.27l-4.12,4.14h6.83     c-7.06,10.96-18.73,17.95-37.89,13.77l-4.73-33.55l-0.9-6.45l-3.5-24.89l-1.07-7.6l-0.36-2.6c8.5,3.34,16.74,5.35,24.5,6.44     c3.01,0.42,5.95,0.71,8.81,0.87C527.36,743.41,536.01,742.64,543.16,741.42z"/>
			<path class="st10" d="M519.77,248.91c14.9,4.76,27.47,10.65,38.08,17.17c-9.29,0.52-18.01,1.81-25.92,3.48     c-1.45-0.57-2.9-1.1-4.34-1.6c-6.59-17.62-28.16-24.18-28.16-24.18C506,245,512.79,246.68,519.77,248.91z"/>
			<path class="st23" d="M542.04,726.48c6.11,0.85,10.55,2.07,13.77,3.36c-1.04,0-63.53,0.1-46.89,12.13     c-7.76-1.09-16-3.1-24.5-6.44c0,0,3.13-9,33.66-10.04c1.92-0.07,3.93-0.1,6.07-0.1c5.33,0,9.95,0.23,13.96,0.63     C539.5,726.16,540.81,726.32,542.04,726.48z"/>
			<path class="st15" d="M539.89,782.96v13.91h-7.01c0.86-1.32,1.65-2.71,2.38-4.14h0.48v-0.98c1.18-2.46,2.19-5.04,3.04-7.68     L539.89,782.96z"/>
			<path class="st2" d="M538.99,837.19l-72.14-0.34l-114.67-0.54l-48.08-0.23l16.74-5.3l17.24-5.47l134.45-42.61l17.72-5.62     l4.73,33.55l1.8,12.8c0,0,0.01,0,0.03,0.01c0.35,0.15,3.27,1.37,7.95,2.59c0.01,0,0.02,0,0.03,0.01L538.99,837.19z"/>
			<path class="st13" d="M535.75,787.12l3.04-3.06c-0.85,2.65-1.86,5.22-3.04,7.68V787.12z"/>
			<path class="st13" d="M535.75,787.12v4.62c-0.15,0.33-0.32,0.65-0.48,0.98h-5.09L535.75,787.12z"/>
			<polygon class="st13" points="535.75,778.81 535.75,787.12 530.17,792.72 521.91,792.72    "/>
			<path class="st13" d="M530.17,792.72h5.09c-0.73,1.43-1.52,2.82-2.38,4.14h-6.83L530.17,792.72z"/>
			<path class="st12" d="M523.24,420.88c1.37,13.16,6.14,23.98,15.75,28.95c-11.31-1.07-19.77-14.89-20.15-34.07     c-0.37-19.18-17.02-15.12-17.02-15.12c2.81-2.62,6.39-3.56,9.63-3.03c0.07,0.01,0.13,0.02,0.19,0.03     c3.25,0.6,6.15,2.66,7.58,5.97C520.9,407.52,522.42,413.05,523.24,420.88z"/>
			<path class="st0" d="M530.37,502.27l0.42,0.86c-19.18,9.08-43.9,13.78-75.62,11.94c-0.01,0-0.01,0-0.01,0     c-2.38-0.47-4.58-0.93-6.58-1.36c-3.73-0.79-7.38-1.71-10.98-2.73c-0.01,0-0.01,0-0.01-0.01c-1.86-0.53-3.7-1.09-5.53-1.68     c-3.67-1.17-7.26-2.47-10.79-3.88c-0.91-0.35-1.82-0.73-2.72-1.1l-0.01-0.01c-3.53-1.48-6.99-3.06-10.36-4.76     c-4.82-2.41-9.46-5.04-13.92-7.86c-19.6-12.37-35.73-28.47-47.26-46.76c23.51-2.2,44.96-28.71,49.86-63.62     c0.14-1.04,0.28-2.06,0.39-3.09c0.12-1.03,0.21-2.05,0.3-3.06c0.6,0.26,1.21,0.54,1.86,0.82c1.58,0.67,2.84,1.57,3.87,2.65     c-1.19,10.6,0.35,20.53,4.66,28.93c0.72,8.78,3.14,17.36,12.13,22.91c1.05,0.66,2.08,1.29,3.11,1.88     c-0.37,1.18-0.69,2.38-0.96,3.6c-5.93,27.61,16.3,60.85,52.1,70.2C496.23,511.86,515.43,509.35,530.37,502.27z"/>
			<polygon class="st11" points="526.25,614.67 526.14,638.95 504.47,643.76 509.97,636.4 519.69,634.4 519.75,623.35    "/>
			<path class="st24" d="M474.67,459.52c8.76,5.04,30.06,15.19,54.55,11.77c-1.76,3.2-4.62,10.59-11.83,14.81     c-4.72,2.78-11.3,4.19-20.65,2.17c-6.73-1.45-11.44-4.27-14.71-7.59C473.51,472.06,474.61,460.02,474.67,459.52z"/>
			<path class="st25" d="M520.3,440c1.01,0.86-0.01,3.74-2.29,6.41c-2.28,2.68-4.95,4.16-5.96,3.3c-1.01-0.87,0.01-3.74,2.29-6.41     C516.62,440.62,519.29,439.14,520.3,440z"/>
			<polygon class="st11" points="519.81,609.3 519.75,623.35 509.97,636.4 496.38,639.21    "/>
			<polygon class="st11" points="509.97,636.4 519.75,623.35 519.69,634.4    "/>
			<path class="st12" d="M517.39,486.1v0.01c-22.01,15.74-35.37-5.43-35.37-5.43c3.27,3.33,7.98,6.14,14.71,7.59     C506.09,490.29,512.67,488.88,517.39,486.1z"/>
			<path class="st13" d="M499.42,243.78c0,0,21.57,6.56,28.16,24.18c-74.05-25.6-137.33,35.89-146.87,45.77     c-0.13,0.14-0.26,0.28-0.37,0.39c-0.23,0.24-0.42,0.44-0.55,0.58c-0.21,0.22-0.32,0.34-0.32,0.34     c-5.82-5.75-12.8-9.52-20.59-10.61c0,0,19.48-32.4,53.11-48.81c0.02-0.01,0.04-0.02,0.07-0.02     C434.66,244.57,464.11,237.29,499.42,243.78z"/>
			<path class="st14" d="M518.84,377.27c-3.31-0.5-6.59-1.22-9.84-2.17c-2.19-0.64-4.39-1.38-6.55-2.23     c-21.27-8.28-41.85-12.99-62.25-16.14c-8.42-1.29-16.8-2.31-25.17-3.22c12.81-15.65,34.23-27.62,51.06-26.5     C494.06,328.88,517.37,352.83,518.84,377.27z"/>
			<path class="st9" d="M514.73,519.71c-2.58,4.76-5.52,8.63-8.71,11.76c-4.17,0.11-8.12,0.06-11.88-0.15     c4.02-2.53,8-5.96,11.88-10.47l-0.02-0.25C509.03,520.39,511.94,520.09,514.73,519.71z"/>
			<path class="st26" d="M506,520.59l0.02,0.25c-3.88,4.51-7.86,7.94-11.88,10.47c-39.01-2.09-55.99-19.75-56.54-20.33     c3.59,1.03,7.25,1.94,10.98,2.73c1.99,0.43,4.2,0.88,6.58,1.36c0,0,0,0,0.01,0c14.56,2.89,35.08,6.18,46.87,5.73     C503.39,520.74,504.71,520.68,506,520.59z"/>
			<path class="st2" d="M494.14,531.31c3.76,0.21,7.72,0.26,11.88,0.15c-22.13,21.81-55.58,7.87-55.58,7.87     c-20.2-4.3-42.27-39.8-42.27-39.8c3.37,1.7,6.83,3.28,10.36,4.76l0.01,0.01c0.9,0.37,1.81,0.75,2.72,1.1v0.01     c0,0,9.75,18.99,25.8,25.97C460.81,537.38,477.79,541.67,494.14,531.31z"/>
			<path class="st25" d="M500.46,440.15c1.3,3.66,1.23,7.03-0.14,7.53c-1.39,0.5-3.57-2.07-4.87-5.74     c-1.31-3.66-1.25-7.03,0.14-7.53C496.98,433.92,499.15,436.5,500.46,440.15z"/>
			<path class="st16" d="M491.88,388.4v0.75c0,0.06-0.01,0.12-0.01,0.18c0,0.15-0.01,0.31-0.02,0.46c0,0.1-0.01,0.2-0.01,0.29     c-0.01,0.14-0.03,0.3-0.03,0.44c-0.03,0.22-0.06,0.44-0.09,0.66c-0.03,0.24-0.06,0.48-0.1,0.74c-0.15,0.97-0.37,1.97-0.66,3.02     c-0.11,0.41-0.23,0.83-0.37,1.25c-0.06,0.18-0.11,0.35-0.17,0.53c-0.06,0.17-0.11,0.33-0.18,0.48c-0.15,0.48-0.34,0.97-0.53,1.47     c-0.18,0.47-0.37,0.97-0.58,1.45c-0.09,0.21-0.18,0.42-0.26,0.63c-0.08,0.2-0.17,0.4-0.25,0.6c-0.14,0.31-0.28,0.61-0.42,0.91     v0.01c-0.04,0.11-0.1,0.21-0.15,0.33c-0.09,0.2-0.19,0.41-0.29,0.61c-0.13,0.29-0.28,0.56-0.41,0.85     c-0.14,0.28-0.28,0.56-0.42,0.85c-0.08,0.14-0.15,0.3-0.23,0.44c-0.3,0.6-0.61,1.2-0.94,1.82c-0.18,0.33-0.36,0.68-0.55,1.02     c-10,18.33-26.33,27.59-39.45,24.13c-0.32-0.09-0.65-0.18-0.97-0.29c-0.64-0.2-1.29-0.41-1.94-0.63     c-0.43-0.15-0.87-0.31-1.31-0.46c-0.22-0.09-0.43-0.17-0.66-0.25c-0.28-0.1-0.55-0.21-0.84-0.31c-0.48-0.19-0.98-0.39-1.49-0.6     c-12.86-5.26-27.43-16.08-22.09-42.18c0.26-1.72,0.67-3.33,1.2-4.82c0.07-0.21,0.14-0.42,0.22-0.63c0.03-0.09,0.08-0.18,0.1-0.26     c0.02-0.03,0.03-0.07,0.04-0.09c0.09-0.21,0.18-0.43,0.26-0.63c0.02-0.06,0.04-0.1,0.07-0.15c0.11-0.28,0.24-0.55,0.39-0.82     c0.01-0.06,0.04-0.1,0.07-0.14c0.11-0.22,0.21-0.43,0.32-0.64c0.13-0.25,0.28-0.52,0.42-0.76c0.14-0.25,0.3-0.51,0.45-0.74     c0.14-0.24,0.3-0.48,0.46-0.71c0.48-0.73,1.01-1.41,1.55-2.05c0.34-0.39,0.69-0.77,1.04-1.12c0.17-0.17,0.33-0.33,0.48-0.48     c0.45-0.43,0.91-0.85,1.39-1.25c0.17-0.12,0.32-0.25,0.47-0.37c0.41-0.33,0.82-0.64,1.23-0.93c0.01-0.01,0.03-0.02,0.04-0.02     l0.2,0.3c39.23-11.35,64.93,15.8,64.93,15.8C491.85,387.52,491.87,387.96,491.88,388.4z M477.77,403.62     c1.8-8.38-3.53-16.63-11.9-18.43c-8.39-1.81-16.63,3.53-18.44,11.9c-1.8,8.38,3.53,16.63,11.9,18.43     C467.71,417.33,475.96,411.99,477.77,403.62z"/>
			<path class="st17" d="M485.16,376.55c4.13,2.93,6.24,6.38,6.65,10.54c0,0-25.7-27.16-64.93-15.8l-0.2-0.3     c0.55-0.4,1.1-0.75,1.66-1.09c0.01,0,0.03-0.01,0.04-0.02c7.96-5,16.97-5.18,19.12-5.14h0.33c0.03,0,0.07,0.01,0.09,0     c0.04,0,0.08,0,0.08,0s0.01,0,0.07,0c0.02-0.01,0.06-0.01,0.1-0.01c1.19-0.08,8.78-0.22,27.6,7.1c0.29,0.11,0.57,0.22,0.87,0.34     c0.21,0.09,0.42,0.17,0.63,0.25c0.2,0.08,0.4,0.15,0.6,0.24c0,0.01,0.01,0.01,0.02,0.01c0.61,0.23,1.18,0.48,1.73,0.75     c0.04,0.02,0.09,0.04,0.14,0.07c0.42,0.2,0.82,0.39,1.2,0.57c0.39,0.2,0.76,0.4,1.14,0.6c0.74,0.4,1.42,0.8,2.06,1.22     C484.51,376.11,484.84,376.33,485.16,376.55z"/>
			<path class="st11" d="M489.36,770.63l0.9,6.45l-17.72,5.62l-134.45,42.61l-17.24,5.47c-5.64-5.31-18.22-13.83-18.69-14.16     c0.93-4.88,1.93-8.76,1.93-8.76s6.29-9.32,9.61-19.46c2.48,16.34,7.43,10.12,7.43,10.12c-5.51-3.31-4.04-27.87-4.04-27.87     c3.09-27.17,2.39-68.55,2.38-69.37c4.74,21.24,12.16,49.13,21.49,66.25c0.02,0.04,0.04,0.09,0.07,0.12     c0.08,0.14,0.14,0.28,0.22,0.41c1.32,2.5,6.8,13.18,5.64,16.63c-0.39,1.17,1.88-2.69,3.02-4.63     C361.04,788.69,394.01,799.25,489.36,770.63z"/>
			<path class="st19" d="M485.86,745.75l3.5,24.89c-95.35,28.61-128.32,18.05-139.46,9.41c0.06-0.11,0.11-0.21,0.17-0.3     c0.03,0.03,0.07,0.06,0.1,0.09c0.01,0,0.01,0,0.01,0c1.14,0.96,2.29,1.72,3.47,2.26c16.57,7.67,50.29-1.04,77.62-11.46     c0,0,14.18-1.96,15.22-0.93c0,0-3.74-3.25-5.63-2.9c8.02-3.36,15.13-6.7,20.59-9.59C475.97,750.62,485.86,745.75,485.86,745.75z"/>
			<path class="st5" d="M484.79,738.14l1.07,7.6c0,0-9.89,4.87-24.4,11.47c-5.46,2.89-12.56,6.23-20.59,9.59h-0.01     c-0.17,0.03-0.31,0.09-0.45,0.19c-2.93,1.21-5.98,2.44-9.13,3.64c-27.33,10.43-61.06,19.13-77.62,11.46     c-1.18-0.54-2.34-1.3-3.47-2.26v-0.01c0,0,67.2,0.56,134.24-41.63L484.79,738.14z"/>
			<path class="st20" d="M465.86,385.19c8.38,1.8,13.7,10.05,11.9,18.43c-1.81,8.38-10.05,13.71-18.44,11.9     c-8.38-1.8-13.7-10.05-11.9-18.43C449.23,388.72,457.47,383.38,465.86,385.19z M464.04,401.88c0.76-3.53-1.49-7.01-5.03-7.77     c-3.54-0.76-7.02,1.49-7.78,5.03c-0.76,3.53,1.49,7.01,5.03,7.77C459.8,407.66,463.28,405.42,464.04,401.88z"/>
			<path class="st0" d="M494.14,531.31c-16.36,10.36-33.33,6.06-47.07,0.08c-16.05-6.98-25.8-25.97-25.8-25.97v-0.01     c3.53,1.41,7.12,2.71,10.79,3.88c1.83,0.58,3.67,1.15,5.53,1.68c0,0.01,0,0.01,0.01,0.01     C438.15,511.56,455.14,529.22,494.14,531.31z"/>
			<path class="st22" d="M459.02,394.11c3.54,0.76,5.79,4.24,5.03,7.77c-0.76,3.54-4.24,5.79-7.78,5.03     c-3.54-0.76-5.79-4.24-5.03-7.77C452,395.59,455.48,393.35,459.02,394.11z"/>
			<path class="st5" d="M446.5,769.71c-1.04-1.04-15.22,0.93-15.22,0.93c3.14-1.2,6.19-2.42,9.13-3.64c0.15-0.07,0.3-0.13,0.45-0.19     h0.01C442.76,766.46,446.5,769.71,446.5,769.71z"/>
			<path class="st5" d="M440.85,766.81c-0.15,0.06-0.3,0.12-0.45,0.19C440.55,766.9,440.69,766.84,440.85,766.81z"/>
			<path class="st0" d="M432.04,707.8c-0.19,0.3-2.33,3.78-4.17,4.53c-0.31,0.04-0.62,0.09-0.93,0.12c-0.01,0-0.01,0-0.01,0     c-2.2,0.29-4.34,0.54-6.41,0.77C421.88,712.98,429.22,711.52,432.04,707.8z"/>
			<path class="st0" d="M427.87,712.33c-0.32,0.14-0.64,0.19-0.93,0.12C427.25,712.42,427.56,712.38,427.87,712.33z"/>
			<path class="st19" d="M408.18,499.54c-1.94-1.3-32.71,6.91-73.06,13.13c28.13-12.09,59.14-20.98,59.14-20.98     C398.72,494.5,403.36,497.13,408.18,499.54z"/>
			<path class="st26" d="M403.27,378.61c5.63,5.96,3.73,17.61,4.66,28.93C403.62,399.14,402.08,389.21,403.27,378.61z"/>
			<path class="st19" d="M397.18,660.74c1.09,7.64,10.79,36.39,10.99,53.77c-2.22,0.21-4.24,0.39-6.07,0.53     c0.4-19.28-9.97-59.23-9.97-59.23c1.92-1.3,3.53-2.69,4.75-4.19c0,0-12.26-22.97-15.85-43.24c-2.24-12.61-4.08-20.63-5.15-24.91     c3.23,11.65,13.47,47.26,23.51,67.34C399.38,650.82,396.07,653.02,397.18,660.74z"/>
			<path class="st10" d="M397.53,375.15c-0.08,1.01-0.18,2.04-0.29,3.06c-0.11,1.02-0.24,2.05-0.39,3.09     c-4.9,34.91-26.35,61.41-49.86,63.62c-2.58,0.25-5.19,0.2-7.81-0.17c-13.47-1.9-24.5-11.78-31.35-26.14c0,0,2.58,1.83,6.75,3.88     c5.4,6.28,12.17,10.4,19.87,11.48c2.15,0.3,4.29,0.35,6.41,0.18c10.58-0.88,20.69-7.51,28.53-17.9c0.41-0.53,0.8-1.08,1.19-1.63     c6.62-9.36,11.46-21.5,13.38-35.13c0.08-0.52,0.14-1.04,0.21-1.55s0.12-1.02,0.18-1.53c0.36-3.26,0.53-6.27,0.48-9.6     c0.61,0.69,1.38,1.47,2.38,2.28C389.43,370.9,392.7,372.95,397.53,375.15z"/>
			<path class="st10" d="M396.77,352.4c-1.38,0.04-2.63,0.12-3.78,0.23c-4.39,0.44-7.23,1.34-9.03,2.42     c-0.66-4.46-1.7-8.72-3.06-12.67c-2.82-8.23-7.06-15.23-12.4-20.3c-4.5-4.27-9.77-7.19-15.6-8.32c-5.55-5.27-9.99-7.75-9.99-7.75     c3.5-1.18,7.1-1.83,10.73-1.9c1.73-0.03,3.48,0.08,5.22,0.32c7.79,1.09,14.77,4.86,20.59,10.61c4.82,4.77,8.84,10.9,11.88,18.01     c0.01,0.01,0.01,0.03,0.02,0.04C393.87,338.94,395.7,345.46,396.77,352.4z"/>
			<path class="st27" d="M384.84,366.8c0,0,0,0,0,0.01c0.02,3.24-0.13,6.35-0.48,9.6c-0.06,0.51-0.11,1.01-0.18,1.53     s-0.13,1.04-0.21,1.55c-1.92,13.62-6.76,25.77-13.38,35.13c-0.39,0.55-0.78,1.1-1.19,1.63c-7.85,10.39-17.95,17.02-28.53,17.9     c-2.13,0.18-4.27,0.12-6.41-0.18c-7.7-1.08-14.47-5.2-19.87-11.48c12.95,6.37,41.22,14.82,54.33-23.62     c15.65-45.9-3.17-72.95-16-85.11c5.83,1.14,11.1,4.06,15.6,8.32c5.33,5.07,9.58,12.07,12.4,20.3c1.37,3.96,2.4,8.21,3.06,12.67     c-4.79,2.88-2.29,7.03-2.29,7.03s0.69,0.96,1.55,2.42C383.58,365.13,384.07,365.9,384.84,366.8z"/>
			<path class="st0" d="M353.65,304.12c14.64-18.02,35.49-39.72,58.34-48.49c-33.64,16.41-53.11,48.81-53.11,48.81     C357.13,304.19,355.38,304.08,353.65,304.12z"/>
			<path class="st28" d="M352.9,313.76c12.83,12.16,31.65,39.2,16,85.11c-13.1,38.44-41.37,29.99-54.33,23.62     c-10.49-12.2-15.82-32.55-12.73-54.52c4.36-31.08,23.99-54.41,45.07-54.73c1.48-0.03,2.96,0.06,4.45,0.26     C351.89,313.57,352.4,313.65,352.9,313.76z M357.05,375.71c0.58-4.17,0.63-8.22,0.19-12.04c-0.75-6.79-3.01-12.8-6.37-17.2     c-3.14-4.12-7.24-6.86-11.98-7.52c-3.89-0.55-7.75,0.36-11.3,2.42c-0.01,0-0.01,0.01-0.01,0.01c-8,4.63-14.47,15.08-16.27,27.91     c-1.72,12.28,1.27,23.65,7.16,30.44v0.01c3,3.45,6.75,5.71,11,6.3c5.14,0.72,10.22-1.09,14.63-4.75     c5.03-4.17,9.16-10.72,11.45-18.65C356.21,380.44,356.71,378.11,357.05,375.71z"/>
			<path class="st5" d="M359.27,742.35h6.19c-2.06,11.35-6.19,12.39-6.19,12.39C361.35,753.71,359.27,742.35,359.27,742.35z"/>
			<path class="st13" d="M357.23,363.68c0.44,3.81,0.4,7.87-0.19,12.04c-0.34,2.4-0.84,4.73-1.5,6.94     c-2.29,7.92-6.43,14.48-11.45,18.65c-4.41,3.66-9.49,5.47-14.63,4.75c-4.25-0.6-8-2.85-11-6.3v-0.01     c-5.9-6.79-8.88-18.16-7.16-30.44c1.8-12.83,8.27-23.28,16.27-27.91c0,0,0-0.01,0.01-0.01c3.55-2.06,7.41-2.98,11.3-2.42     c4.74,0.66,8.84,3.39,11.98,7.52C354.23,350.88,356.48,356.89,357.23,363.68z M343.85,373.86c0.9-6.4-0.17-12.42-2.59-16.84     c-2.15-3.93-5.38-6.59-9.26-7.14c-1.04-0.14-2.07-0.13-3.07,0.03c-3.79,0.58-7.38,3.19-10.13,7.1c0,0.01-0.01,0.02-0.01,0.03     c-2.36,3.38-4.09,7.75-4.78,12.63c-0.56,4-0.35,7.86,0.47,11.26v0.01c1.68,6.88,5.87,11.94,11.39,12.71     c3.75,0.53,7.46-1.02,10.56-4.02C340.12,386.06,342.93,380.44,343.85,373.86z"/>
			<path class="st13" d="M352.9,313.76c-0.51-0.11-1.01-0.19-1.53-0.26c-1.49-0.21-2.98-0.3-4.45-0.26     c-21.07,0.32-40.7,23.65-45.07,54.73c-3.09,21.98,2.24,42.32,12.73,54.52c-4.17-2.05-6.75-3.88-6.75-3.88     c-6.58-13.8-9.3-31.75-6.63-50.73c4.33-30.83,21.56-55.11,41.72-61.86C342.92,306.01,347.35,308.49,352.9,313.76z"/>
			<path class="st0" d="M350.07,779.75c-0.06,0.09-0.11,0.19-0.17,0.3c-4.62-3.58-5.49-6.83-5.49-6.83     C346.23,775.88,348.13,778.1,350.07,779.75z"/>
			<path class="st0" d="M346.88,784.68c1.16-3.45-4.32-14.13-5.64-16.63c1.04,1.87,2.09,3.59,3.17,5.17c0,0,0.87,3.25,5.49,6.83     C348.77,781.99,346.5,785.84,346.88,784.68z"/>
			<path class="st29" d="M341.26,357.02c2.42,4.42,3.49,10.44,2.59,16.84c-0.93,6.58-3.74,12.2-7.43,15.77     c-3.1,3-6.81,4.55-10.56,4.02c-5.51-0.77-9.71-5.83-11.39-12.71c0,0,13.31,9.27,14.45,1.48c1.15-7.78,1.45-10.81,5.25-13.41     c3.79-2.59-5.25-19.1-5.25-19.1c1-0.17,2.04-0.18,3.07-0.03C335.89,350.43,339.11,353.08,341.26,357.02z"/>
			<path class="st0" d="M341.02,767.64c-0.02-0.03-0.04-0.08-0.07-0.12C340.96,767.52,340.98,767.56,341.02,767.64z"/>
			<path class="st28" d="M328.93,349.91c0,0,9.04,16.51,5.25,19.1c-3.79,2.6-4.1,5.63-5.25,13.41c-1.14,7.79-14.45-1.48-14.45-1.48     v-0.01c-0.83-3.41-1.04-7.26-0.47-11.26c0.69-4.88,2.42-9.25,4.78-12.63c0-0.01,0.01-0.02,0.01-0.03     C321.55,353.1,325.14,350.49,328.93,349.91z"/>
			<path class="st5" d="M320.85,830.78l-16.74,5.3h-0.02c-0.71,0.22-1.29,0.19-1.76-0.08c-2.94-1.61-1.63-11.74-0.18-19.39h0.01     C302.63,816.95,315.21,825.47,320.85,830.78z"/>
			<path class="st19" d="M321.13,798.51c0,0-4.95,6.23-7.43-10.12c0.29-0.87,0.55-1.74,0.78-2.62c1.07-4,1.93-9.24,2.6-15.13     C317.08,770.63,315.62,795.2,321.13,798.51z"/>
			<path class="st0" d="M318.34,696.11c0.76,4.65-4.42,8.96-2.93,5.48c1.47-3.42-0.03-20.19-0.03-20.19h0.01     c0.72,3.86,1.68,8.71,2.84,14.18c0,0.01,0.01,0.03,0.01,0.04C318.27,695.78,318.31,695.94,318.34,696.11z"/>
			<path class="st0" d="M318.34,696.11c-0.03-0.17-0.07-0.33-0.1-0.48C318.28,695.79,318.32,695.94,318.34,696.11z"/>
			<path class="st5" d="M302.32,836l-11.69,0.04c1.33-7.09-12.7-11-25.31-13.07c-16.44-2.71-31.78-10.35-43.27-22.42     c-38.22-40.11,4.49-64.53-3.23-156.74c-6.18-73.9-91.35-117.26-91.35-117.26c-2.11-5.38-3.44-6.82-3.44-6.82     c17.98,3.3,88.75,47.94,98.81,98.38c5.38,26.96,5.2,54.26,3.86,73.87c-0.85,12.52-4.55,24.51-7.35,36.75     c-4.46,19.44-18.41,99.16,82.79,87.89C300.69,824.27,299.38,834.39,302.32,836z"/>
			<path class="st0" d="M265.33,822.98c12.61,2.07,26.64,5.98,25.31,13.07l-42.17,0.18c-27.98-7.41-42.41-22.4-49.52-38.18     c-1,7.8,7.94,21.59,8.09,21.91c-16.28-14.14-14.89-40.78-14.89-40.78c0.11-11.03,1.5-18.42,1.18-24.59     c-4.09,12.58-4.33,27.02-4.33,27.02c-5.24-25,7.84-51.78,9.43-57.36c25.54-115.71-27.3-153.28-69.7-171.86     c-16-7.01-35.27-2.69-50.68,8.49c-0.02,0.01-0.06,0.03-0.08,0.04c-2.79,1.68-66.14,40.37-9.47,80.73     c11.26,9.6,26.45,13.74,40.32,7.16c27.16-12.88,15.74-34.83-12.41-28.13c-10.18,2.42-16.64-8.38-9.41-16.01     c0,0,59.15-7.42,52.99,46.94c-8.57,7.45-20.85,11.41-20.85,11.41c11.97-0.23,22.2-6.39,22.2-6.39s-3.68,8.46-31.97,14.83     c-78.15,13.31-79.53-58.71-79.53-58.71c-4.47,6.98-3.49,17.37-3.34,18.76c-14.82-70.87,41.34-96.92,41.34-96.92     c-5.84-3.53-14.13,2.46-14.54,2.76c19.32-20.41,46.43-13.34,46.43-13.34c-5.07-5.11-11.01-6.62-11.01-6.62     c24.9-2.93,38.76,9.17,38.76,9.17s85.16,43.36,91.35,117.26c7.72,92.21-34.99,116.63,3.23,156.74     C233.55,812.63,248.88,820.26,265.33,822.98z"/>
			<path class="st5" d="M104.05,597.93c29.05-3.03,45.1,23.34,44.04,39.73c-0.35,5.51-3.75,10.18-8.1,13.96     C146.15,597.27,87,604.68,87,604.68C90.03,601.48,95.46,598.82,104.05,597.93z"/>
			<path class="st5" d="M77.97,560.93c-11.29,8.21-20.48,20.09-24.79,33.88c-5.46,17.48,2.33,35.79,15.32,46.85     C11.83,601.3,75.18,562.6,77.97,560.93z"/>
		</g>
		<g>
		</g>
	</g>
	<g>
		<line class="st30" x1="706.42" y1="735.41" x2="619.27" y2="761.61"/>
		<line class="st30" x1="644.98" y1="765.23" x2="705.31" y2="745.42"/>
		<line class="st30" x1="670.79" y1="769.23" x2="703.59" y2="759.03"/>
		<line class="st30" x1="695.11" y1="772.89" x2="701.96" y2="769.93"/>
		<line class="st30" x1="622.52" y1="751.86" x2="703.59" y2="761.94"/>
		<line class="st30" x1="649.32" y1="744.3" x2="704.87" y2="751.74"/>
		<line class="st30" x1="672.92" y1="737.55" x2="706.07" y2="742.2"/>
	</g>
	<g>
		<polyline class="st31" points="879.23,614.28 843.66,618.5 843.89,654.1   "/>
		<polyline class="st32" points="854.35,662.39 854.37,627.74 885.37,623.57   "/>
		<polygon class="st32" points="898.11,637.47 868.78,674.92 897.97,668.9   "/>
		<line class="st31" x1="843.81" y1="689.16" x2="906.48" y2="610.61"/>
		<polygon class="st31" points="906.18,644.2 878.91,680.62 906.03,674.59   "/>
	</g>
	<g>
		<polyline class="st31" points="504.74,590.5 476.35,593.87 476.53,622.29   "/>
		<polyline class="st32" points="484.89,628.9 484.89,601.25 509.64,597.92   "/>
		<polygon class="st32" points="519.81,609.01 496.4,638.9 519.69,634.09   "/>
		<line class="st31" x1="476.47" y1="650.27" x2="526.49" y2="587.57"/>
		<polygon class="st31" points="526.25,614.38 504.48,643.45 526.13,638.64   "/>
	</g>
</g>
</svg>